<?xml version="1.0" encoding="UTF-8"?>
<svg xmlns="http://www.w3.org/2000/svg" width="52" height="52" viewBox="0 0 52 52" fill="none">
  <g clip-path="url(#clip0_4936_10233)">
    <path d="M18.0995 8.87643C18.301 8.79102 18.8169 8.57236 18.8169 8.57236C18.9809 8.50403 19.0869 8.41519 19.1279 8.30928L19.1005 7.96763L18.8716 7.71822C18.7657 7.6738 18.6325 7.68405 18.4855 7.74555C18.4855 7.74555 17.9047 7.99154 17.7578 8.05646C17.8193 8.19654 18.0448 8.73293 18.1063 8.87301" fill="#686563"></path>
    <path d="M6.96204 18.1352C6.7058 18.0395 6.50081 18.142 6.39831 18.4119C6.39831 18.4119 6.15574 19.0611 6.09766 19.2182C6.23774 19.2695 6.75364 19.4642 6.89713 19.5189C6.95521 19.3651 7.19779 18.7126 7.19779 18.7126C7.2217 18.6442 7.2422 18.5691 7.2422 18.4939C7.2422 18.3538 7.17387 18.2138 6.96204 18.1352Z" fill="#686563"></path>
    <path d="M43.2461 18.1558C43.2461 18.2549 43.2666 18.354 43.311 18.4565C43.5126 18.9177 43.9977 19.0202 44.64 18.7401C45.0125 18.5761 45.2619 18.3608 45.3575 18.1148C45.4259 17.944 45.4156 17.7629 45.3336 17.5716C45.132 17.1138 44.6469 17.0113 44.008 17.2914C43.5092 17.5101 43.2461 17.8142 43.2461 18.1558Z" fill="#686563"></path>
    <path d="M30.9454 7.49573C31.1606 7.36248 31.3109 7.11649 31.3963 6.76458C31.4305 6.62792 31.4442 6.49809 31.4442 6.38193C31.4442 6.19743 31.4032 6.04027 31.3246 5.90703C31.2016 5.70545 30.9829 5.56879 30.672 5.49362C30.672 5.49362 30.491 5.44921 30.3782 5.42529C30.3338 5.60295 29.9238 7.3249 29.8828 7.49914C29.9956 7.52648 30.1766 7.56747 30.1766 7.56747C30.4875 7.64264 30.7472 7.61872 30.9454 7.49573Z" fill="#686563"></path>
    <path d="M18.4482 6.85706C18.4482 6.79897 18.4311 6.75114 18.4175 6.71698C18.3321 6.51198 18.1817 6.45732 17.9631 6.55298C17.9631 6.55298 17.3925 6.79556 17.2422 6.86047C17.2969 6.98688 17.4403 7.32854 17.495 7.45495C17.6966 7.36954 18.2159 7.14746 18.2159 7.14746C18.4004 7.06888 18.4482 6.95272 18.4482 6.85706Z" fill="#686563"></path>
    <path d="M25.9988 1.89941C12.6879 1.89941 1.89844 12.6889 1.89844 25.9998C1.89844 39.3107 12.6879 50.1002 25.9988 50.1002C39.3097 50.1002 50.0992 39.3107 50.0992 25.9998C50.0992 12.6889 39.3063 1.89941 25.9988 1.89941ZM47.7145 24.1993L47.7281 24.8655L45.6919 26.1946C45.6919 26.1946 45.6133 26.2424 45.5586 26.2766C45.6406 26.2766 45.9481 26.2663 45.9481 26.2663L47.7555 26.2287L47.7691 26.9154L44.2603 26.9872L44.2467 26.3551L46.3376 24.9646C46.3376 24.9646 46.3889 24.9304 46.423 24.9099C46.341 24.9099 46.0369 24.9202 46.0369 24.9202L44.2193 24.9578L44.2057 24.2676L47.612 24.1993H47.7179H47.7145ZM46.9526 20.014L47.1029 20.7007L45.1452 21.1312C44.8309 21.1995 44.6191 21.3191 44.5097 21.4865C44.4312 21.6129 44.4107 21.7667 44.4482 21.9512C44.4927 22.1493 44.5747 22.286 44.7045 22.368C44.8616 22.4705 45.094 22.4876 45.3946 22.4193L47.3865 21.9819L47.5368 22.6687L45.5552 23.1026C44.5883 23.3144 43.9528 22.9557 43.7615 22.0879C43.577 21.2542 44.0246 20.6529 44.9812 20.4445L46.8535 20.0345L46.956 20.0106L46.9526 20.014ZM45.9823 17.291C46.1394 17.6497 46.1531 18.0221 46.0164 18.3672C45.849 18.7943 45.463 19.1599 44.93 19.3922C44.397 19.6245 43.8708 19.6621 43.4404 19.4947C43.0919 19.358 42.8288 19.0984 42.6716 18.7362C42.5145 18.3809 42.5042 18.0085 42.6375 17.6634C42.8049 17.2363 43.191 16.8708 43.7239 16.6384C44.7147 16.2045 45.6201 16.4676 45.9823 17.2876V17.291ZM40.9121 14.8926C40.9975 14.4416 41.3118 14.0111 41.7936 13.6865C42.6887 13.0818 43.6283 13.1706 44.1305 13.9154C44.4448 14.3801 44.4858 14.8311 44.2569 15.2957L44.2125 15.3846L43.5565 15.0942L43.5975 14.9985C43.7205 14.7183 43.7069 14.5441 43.5497 14.3084C43.4369 14.1409 43.29 14.0384 43.1124 14.0043C42.8527 13.9564 42.5384 14.0521 42.2001 14.281C41.6193 14.6739 41.4451 15.1386 41.7252 15.5486C41.8892 15.7911 42.0772 15.8834 42.3812 15.8731H42.4871L42.494 16.5667L42.3949 16.5735C41.8858 16.6077 41.4417 16.3856 41.141 15.9415C40.9224 15.6169 40.8438 15.2547 40.9121 14.8926ZM39.2414 9.18693C39.6104 9.1596 39.9623 9.27918 40.2595 9.532C40.6798 9.89074 40.8404 10.3281 40.7447 10.8303L40.7242 10.9294L40.0204 10.82L40.034 10.7175C40.0785 10.4169 40.0204 10.2529 39.8017 10.065C39.648 9.93174 39.4771 9.87024 39.2961 9.88391C39.033 9.90441 38.7528 10.0787 38.4864 10.3896C38.2199 10.7005 38.09 11.0045 38.1105 11.2676C38.1242 11.4487 38.2096 11.6093 38.3668 11.7425C38.5239 11.8758 38.6811 11.9373 38.8383 11.927C38.9988 11.9133 39.115 11.8279 39.2038 11.7391C39.0945 11.6469 38.8075 11.3974 38.8075 11.3974L39.2517 10.8781L40.2015 11.6947L39.8837 12.0637C39.5933 12.4019 39.2482 12.5967 38.8827 12.624C38.541 12.6513 38.2062 12.5317 37.9124 12.2789C37.6151 12.0261 37.4443 11.6947 37.417 11.3257C37.3828 10.8679 37.5707 10.3691 37.95 9.92832C38.3292 9.48759 38.7904 9.22451 39.2482 9.19035L39.2414 9.18693ZM35.5891 6.46052L36.1665 6.79192L36.2622 9.2211C36.2622 9.2211 36.2622 9.31334 36.2622 9.37826C36.3408 9.2416 36.4535 9.0366 36.4535 9.0366L37.3486 7.46499L37.9465 7.80664L36.2075 10.8576L35.6574 10.5433L35.5379 8.03555C35.5379 8.03555 35.5379 7.97747 35.5379 7.93647C35.4661 8.06288 35.3465 8.27471 35.3465 8.27471L34.448 9.85316L33.8501 9.5115L35.5379 6.55277L35.5891 6.46393V6.46052ZM33.5973 5.75671L33.6348 5.66104L34.2908 5.91729L33.0096 9.18693L32.3536 8.93069L33.5973 5.76012V5.75671ZM29.8288 4.69074L29.8527 4.58824L30.8298 4.82057C31.8719 5.06998 32.3434 5.8592 32.0871 6.92859C31.7865 8.18588 30.8162 8.42846 30.0133 8.23713L29.0327 8.00139L29.8254 4.68732L29.8288 4.69074ZM26.2004 4.36959L26.2072 4.26709L26.9111 4.30809C26.9111 4.30809 26.7607 6.92859 26.7505 7.11991C26.9316 7.13016 28.3973 7.21216 28.3973 7.21216L28.3563 7.90572L26.0091 7.77248L26.2038 4.36959H26.2004ZM24.7825 4.32517L24.885 4.31834L25.1242 7.82031L24.4238 7.86814L24.1846 4.36617L24.7825 4.32517ZM20.833 4.9094L21.2498 6.87051C21.3694 7.42399 21.6427 7.65973 22.0664 7.5709C22.3431 7.5094 22.695 7.34541 22.5413 6.63135L22.1142 4.63608L22.7019 4.50966L22.8044 4.48916L23.228 6.47418C23.3373 6.97984 23.2895 7.39666 23.0845 7.71098C22.9034 7.99114 22.6062 8.17563 22.2065 8.26104C21.8204 8.34304 21.4856 8.29521 21.2122 8.12097C20.8979 7.91597 20.6793 7.5504 20.5699 7.0345L20.1463 5.05973L20.833 4.91282V4.9094ZM17.7103 5.94462C18.0212 5.81479 18.3116 5.79429 18.5542 5.89337C18.7728 5.9822 18.9471 6.16328 19.053 6.41952C19.1008 6.53568 19.1247 6.64843 19.1247 6.75776C19.1247 6.891 19.0427 7.014 18.9744 7.137C19.2511 7.15066 19.5723 7.28732 19.7397 7.68365C19.8149 7.86131 19.8524 8.02872 19.8524 8.18588C19.8524 8.30546 19.8285 8.42162 19.7875 8.53095C19.6748 8.81111 19.422 9.0366 19.0427 9.19718L17.741 9.75066L16.3641 6.5186L17.7103 5.94462ZM11.9021 9.50125L14.198 10.3041C14.198 10.3041 14.2835 10.3383 14.345 10.3588C14.2766 10.2734 14.099 10.0547 14.099 10.0547L12.9681 8.6437L13.4225 8.27813L13.5045 8.21321L15.7047 10.9533L15.2093 11.3496L12.8314 10.5399C12.8314 10.5399 12.7768 10.5194 12.7392 10.5057C12.787 10.5638 12.9852 10.8064 12.9852 10.8064L14.1229 12.2242L13.5865 12.6582L11.3862 9.91807L11.909 9.50125H11.9021ZM10.2861 11.008L10.3544 10.9294L10.8772 11.3804C10.8772 11.3804 9.93076 12.4805 9.81118 12.6172C9.91368 12.706 10.1699 12.9281 10.2724 13.0135C10.3783 12.8871 10.8908 12.2926 10.8908 12.2926L11.4135 12.7436C11.4135 12.7436 10.9011 13.338 10.7952 13.461C10.9079 13.5601 11.3145 13.9086 11.4272 14.0077C11.5468 13.8676 12.5376 12.7162 12.5376 12.7162L13.0603 13.1672L11.4887 14.9917L8.82722 12.6992L10.2827 11.008H10.2861ZM7.95941 13.9086L8.01066 13.8198L8.60172 14.1751C8.60172 14.1751 7.85691 15.4187 7.76125 15.5759C7.87741 15.6442 8.16782 15.8185 8.28398 15.8868C8.3694 15.7433 8.77255 15.0737 8.77255 15.0737L9.36362 15.429C9.36362 15.429 8.96046 16.102 8.87505 16.2421C9.00488 16.3207 9.4627 16.594 9.59252 16.6726C9.68477 16.5154 10.4672 15.2103 10.4672 15.2103L11.0582 15.5656L9.82143 17.6292L6.81145 15.8253L7.95941 13.912V13.9086ZM5.76598 18.1759C6.01881 17.5028 6.56545 17.2295 7.1941 17.4652C7.669 17.6429 7.92183 17.988 7.92183 18.4458C7.92183 18.4526 7.92183 18.4595 7.92183 18.4663C8.12682 18.4458 9.46953 18.3023 9.46953 18.3023L9.18595 19.0539C9.18595 19.0539 7.85008 19.1974 7.73392 19.2111C7.70317 19.2965 7.58017 19.6211 7.53234 19.7509C7.69975 19.8124 8.75888 20.2087 8.75888 20.2087L8.51631 20.8579L5.22616 19.6279L5.7694 18.1725L5.76598 18.1759ZM8.07899 31.0461C7.82616 31.111 7.55626 30.9504 7.49476 30.701C7.43326 30.4516 7.59042 30.1851 7.84325 30.1202C8.09266 30.0587 8.35915 30.2158 8.42065 30.4653C8.48556 30.7147 8.32498 30.9812 8.07557 31.0426L8.07899 31.0461ZM4.5736 22.2928C4.66585 21.7462 4.95626 21.3806 5.43799 21.2098L5.53024 21.1756L5.80015 21.835L5.70448 21.876C5.42432 21.9922 5.315 22.1288 5.26375 22.4124C5.22958 22.614 5.26375 22.7917 5.37308 22.9386C5.52682 23.1538 5.82065 23.3041 6.2238 23.3725C6.91736 23.4886 7.36151 23.2734 7.44351 22.7814C7.45376 22.7267 7.45718 22.6721 7.45718 22.6243C7.45718 22.491 7.42301 22.3783 7.3581 22.286C7.26585 22.1562 7.1326 22.0981 7.00961 22.0674C6.98569 22.2074 6.92078 22.5867 6.92078 22.5867L6.2443 22.4739L6.45271 21.2405L6.93103 21.3225C7.37176 21.3977 7.71683 21.5925 7.92866 21.8931C8.12682 22.1733 8.19857 22.5218 8.13365 22.9044C8.06874 23.2905 7.874 23.6048 7.57334 23.82C7.19752 24.0865 6.67479 24.1788 6.1008 24.0831C5.52682 23.9875 5.06559 23.7278 4.79568 23.352C4.62827 23.1196 4.54627 22.8497 4.54627 22.5628C4.54627 22.4773 4.5531 22.3919 4.57019 22.3031L4.5736 22.2928ZM7.874 26.1706C7.87741 26.4303 7.66217 26.6524 7.40593 26.6558C7.14627 26.6592 6.92078 26.444 6.91736 26.1843C6.91394 25.9281 7.12919 25.706 7.39226 25.6992C7.65192 25.6957 7.874 25.911 7.87741 26.1672L7.874 26.1706ZM4.41986 28.6852C4.36519 28.2445 4.47794 27.8516 4.75468 27.4826L4.81618 27.4006L5.37649 27.8345L5.31158 27.9165C5.14075 28.1317 5.07925 28.3538 5.11342 28.6408C5.13392 28.8082 5.18858 28.9312 5.27058 28.9961L5.47216 29.0474C5.60882 29.0303 5.70107 28.9756 5.80698 28.3538C5.91631 27.7388 6.07005 27.1819 6.75678 27.0999C7.06769 27.0624 7.33418 27.1239 7.54601 27.2913C7.79883 27.4894 7.95941 27.8243 8.01407 28.2821C8.07216 28.7638 7.92183 29.2455 7.60067 29.5974L7.53576 29.6692L6.99252 29.2319L7.06086 29.1499C7.2556 28.9244 7.35468 28.6066 7.32051 28.3299C7.25902 27.8208 7.05061 27.7798 6.87636 27.8003C6.70895 27.8208 6.61329 27.9336 6.51421 28.5212C6.39804 29.208 6.26821 29.6658 5.5849 29.7512C5.31841 29.7819 5.07242 29.717 4.87084 29.5599C4.62827 29.3685 4.46769 29.061 4.42327 28.6886L4.41986 28.6852ZM5.91631 34.2508L7.79542 33.547C8.09607 33.4342 8.29082 33.2873 8.37281 33.1063C8.43431 32.9696 8.43431 32.8124 8.36598 32.6382C8.2669 32.3717 8.05507 32.0505 7.36493 32.3068L5.45507 33.0208L5.20908 32.3614L7.10869 31.6508C8.03457 31.3023 8.71447 31.5688 9.02538 32.399C9.32603 33.1985 8.97071 33.8545 8.05166 34.1995L6.15889 34.9102L5.91289 34.2508H5.91631ZM20.3239 44.3228C20.136 44.8353 19.9481 45.3444 19.7602 45.8534C19.668 46.1063 19.545 46.342 19.3605 46.5402C19.0564 46.8647 18.6806 46.9775 18.2467 46.8955C17.9426 46.8374 17.6693 46.7144 17.4506 46.4889C17.1431 46.1746 17.0714 45.7851 17.1431 45.3683C17.1773 45.1667 17.249 44.9685 17.3174 44.7738C17.4745 44.3262 17.6419 43.8855 17.8059 43.4413C17.8298 43.3764 17.8572 43.3115 17.8913 43.2295C18.0929 43.3013 18.2842 43.373 18.4892 43.4448C18.479 43.4926 18.4756 43.5302 18.4619 43.5677C18.2706 44.0905 18.0758 44.6098 17.8845 45.1325C17.823 45.2999 17.7786 45.4708 17.7923 45.6518C17.8128 45.9183 17.9426 46.1063 18.1954 46.2053C18.4482 46.3044 18.6703 46.2532 18.8651 46.0687C19.0017 45.9388 19.0803 45.7748 19.1452 45.6006C19.3365 45.0847 19.5245 44.5688 19.7158 44.0529C19.7295 44.0153 19.7465 43.9777 19.7704 43.9162C19.9789 43.9914 20.1702 44.0631 20.3752 44.1383C20.3547 44.2032 20.3444 44.2613 20.3239 44.3126V44.3228ZM22.022 45.6074C22.1005 45.6758 22.1928 45.7304 22.2885 45.7783C22.4627 45.8637 22.6438 45.9354 22.8214 46.0208C22.9 46.0584 22.9786 46.1028 23.0503 46.1541C23.4125 46.4001 23.5389 46.7281 23.4398 47.1551C23.3339 47.6164 23.0093 47.8897 22.5379 47.9204C22.0356 47.9512 21.571 47.8487 21.1747 47.5207C21.0414 47.4114 20.9355 47.2781 20.8501 47.0971C21.0209 46.9877 21.1952 46.8784 21.3762 46.7622C21.4138 46.8066 21.448 46.8476 21.4821 46.8852C21.7452 47.1961 22.0869 47.302 22.4832 47.2781C22.6096 47.2713 22.7053 47.2064 22.7565 47.0834C22.8112 46.9467 22.7907 46.8237 22.6745 46.7315C22.5925 46.6666 22.4969 46.6119 22.4012 46.5675C22.2475 46.4923 22.0869 46.4308 21.9297 46.3591C21.8443 46.3181 21.7623 46.2737 21.6803 46.2224C21.3899 46.0448 21.2362 45.7885 21.2601 45.44C21.2874 45.0745 21.4548 44.8011 21.7931 44.6405C22.3329 44.3843 23.2929 44.5722 23.6756 45.2692C23.5047 45.3888 23.3305 45.5084 23.1528 45.6348C23.1084 45.5835 23.0708 45.5391 23.0298 45.4947C22.8249 45.2726 22.572 45.1599 22.2714 45.1735C22.1996 45.1769 22.1176 45.2043 22.0561 45.2419C21.9263 45.3273 21.9092 45.5049 22.0254 45.6074H22.022ZM27.2664 47.49C27.1331 47.7872 26.9111 47.9854 26.607 48.0981C26.3097 48.2074 26.0057 48.2279 25.6982 48.1493C25.2369 48.0298 24.9329 47.7325 24.7689 47.2952C24.5775 46.7896 24.5639 46.2737 24.745 45.7646C25.0388 44.948 25.7904 44.6474 26.5831 44.8797C26.9213 44.9788 27.1946 45.2726 27.2971 45.6108C27.1058 45.6928 26.9145 45.7783 26.7129 45.8671C26.6856 45.8329 26.6548 45.8022 26.6377 45.768C26.3917 45.3273 25.7426 45.3717 25.4898 45.768C25.3121 46.0482 25.2779 46.3557 25.3121 46.6734C25.3326 46.875 25.3873 47.0697 25.5069 47.2371C25.7255 47.548 26.1526 47.6471 26.4874 47.4558C26.6446 47.367 26.7129 47.2269 26.7266 47.039H26.2175V46.4342H27.3791C27.3894 46.7861 27.4201 47.1449 27.2664 47.4865V47.49ZM30.9665 47.4319C30.8162 47.5207 30.6454 47.5856 30.4779 47.6266C30.0406 47.7291 29.5999 47.8145 29.1591 47.9034C29.1147 47.9136 29.0669 47.917 28.9986 47.9273C28.8722 47.3977 28.7765 46.8647 28.6637 46.3386C28.5544 45.809 28.4451 45.276 28.3323 44.726C28.4417 44.6986 28.5442 44.6713 28.6467 44.6508C29.0396 44.5688 29.4325 44.4766 29.8288 44.4116C30.0167 44.3809 30.2217 44.3775 30.4096 44.4116C30.9836 44.521 31.1886 45.2624 30.8845 45.6484C30.8674 45.6723 30.8503 45.6963 30.8264 45.7304C30.8435 45.7441 30.8503 45.7578 30.864 45.7612C31.2262 45.8773 31.3867 46.1507 31.4175 46.5094C31.4517 46.9023 31.3184 47.2235 30.9768 47.4319H30.9665ZM34.6564 46.2463C34.0209 46.7725 33.1394 46.7691 32.5757 46.0379C32.2511 45.6177 32.0701 45.1394 32.0974 44.603C32.1486 43.5028 33.1975 43.0963 33.8569 43.2876C34.0414 43.3423 34.2054 43.4311 34.3523 43.5814C34.2737 43.6668 34.1986 43.7488 34.1234 43.8274C34.0517 43.906 33.9799 43.9812 33.9047 44.0597C33.874 44.0427 33.8501 44.0324 33.833 44.0187C33.4845 43.7386 32.8183 43.9846 32.7739 44.5415C32.7363 45.03 32.9071 45.4503 33.2795 45.7748C33.6963 46.1336 34.3079 45.8876 34.4002 45.4127C34.4104 45.3683 34.4275 45.3239 34.448 45.2658C34.653 45.2965 34.8477 45.3239 35.0664 45.3546C35.0459 45.7202 34.9229 46.0208 34.653 46.2429L34.6564 46.2463ZM43.8572 38.8939L41.8346 43.9367L41.797 43.9231C41.7355 43.8992 36.0777 41.9005 28.6296 41.4802C27.772 41.6237 26.894 41.7023 25.9988 41.7023C25.1037 41.7023 24.2017 41.6237 23.3339 41.4768C15.838 41.8868 10.1323 43.9026 10.0674 43.9265L10.0298 43.9402L10.0162 43.9026L7.99699 38.8597L8.03116 38.8427C8.03116 38.8427 9.7121 38.0295 12.7392 37.2335C13.2892 37.09 13.9111 36.9396 14.5944 36.7893C11.9329 33.9775 10.2998 30.1783 10.2998 25.9998C10.2998 17.3286 17.3276 10.3007 25.9988 10.3007C34.6701 10.3007 41.6979 17.3286 41.6979 25.9998C41.6979 30.1885 40.058 33.9946 37.3828 36.8098C38.0251 36.9499 38.6093 37.0934 39.1321 37.23C42.1557 38.0261 43.823 38.8324 43.8401 38.8392L43.8743 38.8563L43.8606 38.8905L43.8572 38.8939ZM45.9139 34.7633C45.9139 34.7633 43.5326 33.6631 43.3549 33.5812C43.2764 33.7451 42.6648 35.0776 42.6648 35.0776L42.0327 34.7872L42.9723 32.7475L43.0167 32.6553L46.2078 34.1278L45.9105 34.7667L45.9139 34.7633ZM46.6553 32.8363L43.3037 31.7875L43.4814 31.2135L43.5121 31.1144L46.8637 32.1633L46.6553 32.8363ZM47.4719 29.7819C47.3797 30.3354 47.0961 30.6907 46.6075 30.8684L46.5153 30.9026L46.2419 30.2363L46.3376 30.1953C46.6212 30.0758 46.7339 29.9425 46.7817 29.6658C46.8159 29.4676 46.7817 29.29 46.6758 29.143C46.5221 28.9278 46.2283 28.7775 45.8217 28.7091C45.1316 28.593 44.6874 28.8082 44.602 29.2968C44.5542 29.5838 44.6259 29.7854 44.8514 29.9869L44.93 30.0587L44.4517 30.5677L44.3765 30.5028C43.9836 30.1783 43.8162 29.7068 43.905 29.1806C44.0553 28.2957 44.8719 27.8208 45.9379 28.0019C46.5118 28.0976 46.9731 28.3572 47.243 28.7331C47.4582 29.0337 47.5368 29.3993 47.4719 29.7819Z" fill="#686563"></path>
    <path d="M26 0C11.6402 0 0 11.6402 0 26C0 40.3598 11.6402 52 26 52C40.3598 52 52 40.3598 52 26C52 11.6402 40.3598 0 26 0ZM26 51.0229C12.18 51.0229 0.980552 39.82 0.980552 26C0.980552 12.18 12.18 0.980552 26 0.980552C39.82 0.980552 51.0195 12.1834 51.0195 26C51.0195 39.8166 39.8166 51.0229 26 51.0229Z" fill="#686563"></path>
    <path d="M31.4729 28.2483C30.8989 27.3703 29.7885 27.7837 30.137 28.7232C30.769 30.4383 31.3362 31.9177 30.7383 33.3902C30.6597 33.5884 30.5504 33.9301 30.4035 34.2717C35.2652 29.7448 36.6011 23.4754 36.6011 23.472C36.6182 23.4071 36.7344 23.3456 36.7959 23.3661C36.8573 23.3866 36.8847 23.5061 36.8676 23.5711C36.8676 23.5813 35.6411 30.7697 29.5938 35.7374C29.8602 35.7545 30.1233 35.775 30.383 35.7955C30.4274 35.7716 30.4718 35.7511 30.506 35.734C31.2303 35.4026 32.9454 34.6715 34.8655 34.2751C36.7856 33.8788 39.6726 31.723 38.5656 30.4896C38.1454 30.0215 37.609 30.2778 37.2605 30.3598C36.3893 30.5648 36.7412 29.8712 37.3767 29.5637C37.6192 29.4475 40.5951 28.5319 39.9118 26.7587C39.4334 25.5117 38.5075 26.9876 37.8652 26.5059C37.6602 26.3521 37.5304 26.2291 38.4358 25.3511C39.3412 24.4696 39.6145 23.8478 39.7068 23.3046C39.7956 22.7648 39.7956 22.3513 39.4232 22.1429C39.0508 21.9345 38.5622 22.4846 38.4119 21.914C38.3231 21.6065 38.4392 21.4357 38.4392 20.8891C38.4392 20.2912 37.8277 18.7947 36.3995 19.3004C35.4771 19.6249 35.9656 21.2171 35.7265 21.5211C35.4805 21.8286 35.2755 20.8856 34.7562 20.7353C34.1583 20.5645 33.7414 21.118 33.7449 21.6339C33.7483 22.1464 34.0831 23.103 34.1959 23.4754C34.2573 23.7692 34.4179 24.5687 34.3154 24.8044C34.1617 25.1598 34.0353 25.0436 33.6902 24.5926C33.3895 24.1929 33.5501 24.3603 33.0171 23.7214C32.3543 22.9048 31.9546 24.0357 31.9068 24.7908C31.8589 25.5458 32.4329 28.1766 32.4227 28.5251C32.3817 30.1035 31.507 28.2927 31.4763 28.2517L31.4729 28.2483Z" fill="#686563"></path>
    <path d="M22.9438 28.1185C24.2489 28.7915 23.7091 30.3392 22.7627 30.5237C21.8163 30.7082 20.3336 31.9553 24.8981 34.6646C25.168 34.8252 25.3217 35.1532 25.414 35.6246C25.578 35.6246 25.742 35.6246 25.906 35.6246C25.8786 33.5337 25.8479 30.6365 25.8479 28.3337C25.8479 24.2509 25.947 19.8026 25.947 19.8026C25.947 19.8026 25.9845 19.6317 26.0973 19.6317C26.21 19.6317 26.2305 19.8026 26.2305 19.8026C26.2305 19.8026 26.3296 24.2509 26.3296 28.3337C26.3296 30.6365 26.2989 33.5337 26.2715 35.6246C26.415 35.6246 26.5585 35.6246 26.702 35.6281C26.7909 35.1566 26.9412 34.8286 27.2145 34.668C31.779 31.9587 30.2962 30.7116 29.3499 30.5271C28.4035 30.3426 27.8637 28.7949 29.1688 28.1219C31.4681 26.8304 32.64 22.2147 29.7872 23.226C29.5275 23.2465 27.6484 24.2236 29.3054 21.3947C30.8702 18.5658 30.3885 16.0444 28.7656 17.1411C28.3386 17.4281 27.1359 18.7059 27.3751 16.8575C27.8056 14.0559 27.112 13.0583 26.2886 12.8738C26.2886 12.8738 26.2032 12.8601 26.1349 12.8499H26.0597V12.843C26.0119 12.8396 25.8308 12.8704 25.8308 12.8704C25.0074 13.0514 24.3173 14.0525 24.7443 16.8541C24.9869 18.699 23.7809 17.4246 23.3572 17.1377C21.7343 16.0409 21.2526 18.5624 22.8174 21.3913C24.471 24.2202 22.5953 23.2465 22.3357 23.2225C19.4828 22.2147 20.6547 26.827 22.9541 28.1185H22.9438Z" fill="#686563"></path>
    <path d="M30.1729 45.5803C30.3335 45.5222 30.3881 45.4095 30.3574 45.2455C30.3266 45.0815 30.2344 44.9995 30.0636 44.9961C30.0055 44.9961 29.9474 45.0029 29.8893 45.0166C29.698 45.0542 29.5101 45.0952 29.3188 45.1362C29.247 45.1498 29.1718 45.1703 29.0898 45.1874C29.1343 45.3958 29.1718 45.5837 29.2128 45.7922C29.4554 45.7409 29.6707 45.6965 29.8825 45.6521C29.9816 45.6316 30.0806 45.6145 30.1729 45.5803Z" fill="#686563"></path>
    <path d="M30.2574 46.178C29.9568 46.2292 29.6561 46.2975 29.3281 46.3659C29.3896 46.6529 29.4443 46.9159 29.5024 47.1961C29.8269 47.1278 30.1344 47.0697 30.4351 46.9911C30.6743 46.9296 30.7733 46.7417 30.7289 46.5162C30.6743 46.2531 30.5205 46.137 30.254 46.178H30.2574Z" fill="#686563"></path>
    <path d="M15.2411 23.5711C15.2241 23.5061 15.2685 23.3831 15.33 23.3661C15.3881 23.3456 15.4837 23.4515 15.5008 23.5164C15.5008 23.5232 16.8435 29.7482 21.7053 34.2751C21.5584 33.9335 21.4524 33.5918 21.3704 33.3937C20.7725 31.9211 21.3397 30.4418 21.9718 28.7266C22.3168 27.7837 21.2099 27.3737 20.6359 28.2517C20.6086 28.2962 19.7305 30.1035 19.6895 28.5251C19.6792 28.1766 20.2532 25.5458 20.2054 24.7908C20.1576 24.0357 19.7544 22.9048 19.095 23.7214C18.5654 24.3603 18.7226 24.1929 18.422 24.5926C18.0803 25.0436 17.9505 25.1563 17.8001 24.8044C17.7011 24.5687 17.8582 23.7692 17.9197 23.4754C18.0291 23.1064 18.3639 22.1498 18.3707 21.6339C18.3741 21.1214 17.9573 20.5679 17.3594 20.7353C16.8401 20.8822 16.6317 21.8286 16.3891 21.5211C16.1499 21.2205 16.6419 19.6284 15.716 19.3004C14.2879 18.7947 13.6729 20.2912 13.6764 20.8891C13.6764 21.4357 13.7959 21.61 13.7037 21.914C13.5568 22.4846 13.0648 21.9345 12.6958 22.1429C12.3234 22.3513 12.3234 22.7648 12.4122 23.3046C12.5045 23.8444 12.7778 24.4696 13.6832 25.3511C14.5886 26.2291 14.4587 26.3487 14.2538 26.5059C13.6114 26.9876 12.6856 25.5082 12.2072 26.7587C11.5239 28.5319 14.4963 29.451 14.7423 29.5637C15.3812 29.8678 15.7297 30.5648 14.8585 30.3598C14.51 30.2778 13.9736 30.0249 13.5534 30.4896C12.4464 31.7264 15.3334 33.8788 17.2535 34.2751C19.1736 34.6715 20.8887 35.406 21.613 35.734C21.6404 35.7477 21.6711 35.7613 21.7053 35.7784C21.9683 35.7579 22.2348 35.7408 22.5082 35.7238C16.4745 30.7561 15.2514 23.5779 15.2514 23.5676L15.2411 23.5711Z" fill="#686563"></path>
    <path d="M17.6897 37.5376C17.6897 37.5376 18.0928 39.9736 18.1236 40.1513C18.3012 40.1273 19.7396 39.9292 19.7396 39.9292L19.8455 40.5715L17.6418 40.8756L17.5393 40.8892L16.9961 37.6298L17.6862 37.5342L17.6897 37.5376Z" fill="#686563"></path>
    <path d="M22.4097 37.0014L24.6031 36.9126H24.7056L24.7363 37.5549C24.7363 37.5549 23.3116 37.613 23.1306 37.6198C23.1374 37.7462 23.1511 38.064 23.1579 38.1904C23.3185 38.1836 24.0906 38.1528 24.0906 38.1528L24.1214 38.7985C24.1214 38.7985 23.3526 38.8293 23.1886 38.8361C23.1955 38.9762 23.2194 39.4784 23.2262 39.6185C23.4073 39.6117 24.9003 39.5502 24.9003 39.5502L24.9311 40.1959L22.5634 40.2916L22.4062 36.998L22.4097 37.0014Z" fill="#686563"></path>
    <path d="M27.5971 36.8955L29.7905 37.0048H29.893L29.8657 37.6574C29.8657 37.6574 28.441 37.5857 28.2599 37.5754C28.2565 37.7018 28.2428 38.0196 28.236 38.146C28.3966 38.1528 29.1687 38.1938 29.1687 38.1938L29.1414 38.8395C29.1414 38.8395 28.3727 38.8019 28.2087 38.7917C28.2018 38.9318 28.1813 39.434 28.1745 39.5741C28.3556 39.5843 29.8486 39.6561 29.8486 39.6561L29.8213 40.3018L27.457 40.1822L27.5971 36.8887V36.8955Z" fill="#686563"></path>
    <path d="M34.1434 37.5444L33.1697 37.4043L33.1526 37.5L32.6367 40.6705L33.6104 40.8106C34.4099 40.9268 35.3358 40.6193 35.534 39.4166C35.7014 38.3917 35.1786 37.6913 34.14 37.541L34.1434 37.5444ZM34.8472 39.321C34.7926 39.6592 34.6627 39.9018 34.4646 40.0419C34.2801 40.1751 34.0273 40.2161 33.7198 40.1717C33.7198 40.1717 33.5387 40.1444 33.4259 40.1307C33.4533 39.9633 33.7232 38.3131 33.7505 38.1457C33.8633 38.1628 34.0443 38.1867 34.0443 38.1867C34.3518 38.2311 34.5773 38.3438 34.714 38.5215C34.8028 38.6377 34.8541 38.7846 34.8677 38.9554C34.878 39.0647 34.8711 39.1877 34.8506 39.3176L34.8472 39.321Z" fill="#686563"></path>
  </g>
  <defs>
    <clipPath id="clip0_4936_10233">
      <rect width="52" height="52" fill="white"></rect>
    </clipPath>
  </defs>
</svg>
