<?xml version="1.0" encoding="UTF-8"?>
<svg xmlns="http://www.w3.org/2000/svg" xmlns:xlink="http://www.w3.org/1999/xlink" version="1.1" id="Layer_1" x="0px" y="0px" viewBox="0 0 1843.2 864.117" style="enable-background:new 0 0 1843.2 864.117;" xml:space="preserve">
<rect style="fill:none;" width="1843.2" height="864.117"></rect>
<g>
</g>
<g>
	<path style="fill:#010202;" d="M501.253,9.314c15.971,15.968,16.731,25.858,12.929,90.496c-2.282,31.18-4.564,70.728-6.085,88.218   c-3.042,31.18-4.563,74.528-8.365,214.462c-3.802,138.411-8.366,234.242-15.21,290.513c-3.042,20.535-3.802,38.025-3.042,38.793   c0.76,0.755,26.617,0,57.038-1.522c60.84-3.8,454.783-17.49,580.266-20.535c199.253-3.8,252.488-4.555,260.094-2.278   c9.887,2.278,10.647,9.89,0.76,10.645c-26.618,0.755-102.668,3.045-200.013,5.323c-125.484,3.8-280.627,9.89-412.195,16.735   c-89.74,5.323-94.303,5.323-208.379,12.168c-39.546,3.045-75.29,4.555-79.853,4.555c-6.085,0-8.366,3.045-14.45,17.503   c-9.126,23.568-37.265,50.948-63.882,63.883c-39.546,19.013-81.375,25.845-161.988,25.845c-75.29,0-138.412-8.355-192.408-25.09   c-27.378-8.368-47.912-27.38-46.391-42.593c1.521-13.69,11.407-19.768,43.349-26.613c47.151-10.645,203.056-25.103,327.018-31.18   c34.983-1.523,65.403-3.045,66.925-4.568c3.042-1.523,13.689-41.07,19.773-73.761c9.886-54.005,16.73-200.017,17.492-381.021   c0.76-146.779,4.563-269.977,9.126-276.067C488.324-2.099,490.606-1.331,501.253,9.314L501.253,9.314z M288.311,772.098   c-134.61,10.645-251.728,27.38-239.56,33.47c2.281,1.51,22.815,6.078,44.87,9.878c67.685,11.413,190.888,9.135,244.883-5.323   c25.097-6.078,65.404-25.858,76.051-38.025l9.126-9.878l-28.9,2.278C378.811,765.253,330.9,769.053,288.311,772.098   L288.311,772.098z M1130.953,362.187c6.844,7.6,10.647,23.58,8.365,31.948c-2.281,5.323,2.282,5.323,103.429,4.555   c58.559-0.755,111.034,0,116.358,1.522c7.605,2.278,10.647,4.568,10.647,9.123c0,5.323-2.281,5.323-82.134,4.568   c-44.87,0-98.106,0.755-118.639,1.522l-35.744,2.278l-9.126,22.813c-4.564,12.935-11.408,40.315-14.45,61.605   c-6.084,34.225-6.084,41.07-3.042,55.516c6.084,26.625,22.815,33.47,59.319,24.335c30.42-6.845,34.983-10.645,31.941-24.335   c-6.084-26.613,10.647-60.083,34.984-71.483c22.055-10.645,41.067-3.045,41.067,17.49c0,6.845-10.647,26.613-27.378,47.915   c-8.366,10.645-15.21,20.535-15.21,21.29c0,3.8,45.63,1.523,62.361-3.045c22.815-6.078,55.517-23.568,74.53-39.548l14.45-12.923   l-3.042-13.69c-3.802-17.49,1.521-30.425,14.45-31.948c6.844-0.755,9.126,0.767,12.928,11.413l5.324,12.935l21.294-2.29   c50.954-4.555,68.446,12.168,47.912,44.87c-5.324,7.612-8.366,15.213-7.605,15.968c3.042,3.045,42.589,2.29,71.488-1.51   c57.038-6.09,147.538-11.413,205.337-12.18c54.757,0,61.601,0,74.53,6.09c15.21,6.845,22.815,19.768,14.45,25.103   c-6.084,3.8-37.265,3.033-41.828-0.767c-3.802-4.568-78.332-8.368-122.442-6.845c-41.828,0.767-130.807,10.645-181.761,19.78   c-9.887,1.51-22.055,2.278-25.857,1.51c-15.21-3.8-19.013-31.935-6.844-53.226c4.563-7.612,7.605-13.69,7.605-14.458   c0-3.033-31.942,2.29-51.715,8.368c-13.689,4.567-26.618,12.168-44.109,25.858c-38.786,31.18-89.74,52.471-123.202,52.471   c-8.366,0-18.252-2.278-25.857-6.845l-12.929-7.6l-10.647,6.845c-11.408,8.368-44.109,19.768-54.756,19.768   c-11.408,0-37.265-14.445-48.673-27.368c-17.492-19.013-24.336-34.993-25.857-63.883l-2.281-25.858l-7.606,10.645   c-11.407,17.49-42.588,48.67-60.08,61.606c-23.576,17.49-47.151,27.368-69.206,28.89c-16.731,1.522-20.534,0.767-33.463-6.078   l-15.21-8.368l-6.084,7.6c-3.803,4.568-11.408,16.735-16.731,26.625c-11.408,19.768-15.971,21.29-25.097,6.845   c-5.323-9.89-5.323-10.657,0-19.78c2.282-6.078,10.647-18.245,18.252-27.38l12.929-16.723l-5.323-15.98   c-3.042-8.355-6.845-16.723-7.606-17.49c-0.76-0.755-11.407,6.09-24.336,15.98c-53.236,42.58-122.441,73.761-152.101,69.206   c-6.084-0.767-15.21-6.09-20.534-10.657c-9.886-9.123-9.886-9.123-22.055-4.555c-11.408,4.555-12.168,4.555-17.492,0   c-9.126-8.368-6.084-16.735,8.365-21.303c11.408-4.555,12.168-5.323,10.647-14.445c-1.521-15.968,4.563-30.413,19.773-47.915   c24.336-26.613,56.278-36.503,71.488-22.045c15.971,16.723,3.042,41.058-38.025,72.238l-19.773,15.213l9.886,3.045   c6.845,1.523,19.013,0,38.786-4.568c50.194-10.645,103.429-41.058,130.807-74.528c9.126-9.878,17.492-18.245,19.773-17.49   c6.085,2.278,9.887,16.735,9.887,34.98c-0.76,9.89,0,18.258,1.521,19.78c0.76,0.755,15.21-10.645,31.18-26.625   c37.265-36.503,50.194-46.381,59.32-44.87c10.647,1.523,10.647,12.168,0,17.503c-15.971,6.845-69.206,66.916-66.165,74.528   c4.563,11.4,47.912,8.368,76.051-6.09c42.588-21.29,88.219-72.251,100.387-111.798l6.845-23.568h-9.127   c-15.971,0-106.47,12.168-139.172,18.245c-34.223,6.845-37.265,6.09-35.744-10.645c0.76-7.6,2.281-9.123,12.929-10.645   c22.055-4.567,126.244-15.213,142.975-15.213c23.576,0,38.025-3.033,38.025-8.368c0-2.278,3.802-12.168,8.366-22.045   C1114.982,353.82,1120.305,350.775,1130.953,362.187L1130.953,362.187z M1232.861,534.824c-12.168,19.013-6.845,21.29,7.605,3.8   c6.844-9.123,12.168-17.49,12.168-19.013C1252.634,513.533,1240.466,523.411,1232.861,534.824L1232.861,534.824z M694.422,533.301   c-6.084,6.09-10.647,10.645-9.126,10.645c2.281,0,9.126-4.555,15.21-10.645c6.845-5.323,11.408-9.89,9.126-9.89   C708.111,522.656,701.266,527.979,694.422,533.301L694.422,533.301z"></path>
</g>
</svg>
