<?xml version="1.0" encoding="UTF-8"?>
<svg xmlns="http://www.w3.org/2000/svg" width="40" height="72" viewBox="0 0 40 72" fill="none">
  <path d="M16.4071 33.3681C16.8072 33.2253 17.1077 33.0126 17.307 32.7333C17.5062 32.4539 17.6059 32.1048 17.6059 31.689C17.6059 31.2732 17.5157 30.9494 17.3354 30.659C17.1552 30.3686 16.9179 30.1607 16.6222 30.0369C16.3265 29.9115 15.8299 29.8496 15.1325 29.8496H13.8594V36.1867H15.0613V33.503H15.172L16.5921 36.1867H17.9063L16.4103 33.3697L16.4071 33.3681ZM16.2252 32.1746C16.0813 32.2762 15.8172 32.3254 15.4361 32.3254H15.0597V31.024H15.3887C15.7081 31.024 15.9279 31.0462 16.0481 31.0907C16.1683 31.1351 16.2632 31.2081 16.3344 31.3113C16.4055 31.4144 16.4419 31.5335 16.4419 31.6715C16.4419 31.9048 16.3692 32.0715 16.2252 32.173V32.1746Z" fill="#686563"></path>
  <path d="M19.7241 24.8286H19.033L17.6523 28.4217H18.3608L18.6518 27.6821H20.1131L20.393 28.4217H21.1015L19.7241 24.8286ZM18.9017 27.0156L19.3825 25.7824L19.8601 27.0156H18.9017Z" fill="#686563"></path>
  <path d="M30.0955 26.8235C30.3232 26.7426 30.4924 26.622 30.6047 26.4633C30.717 26.3046 30.7739 26.1078 30.7739 25.8713C30.7739 25.6348 30.7233 25.4523 30.6205 25.2873C30.5177 25.1222 30.3833 25.0048 30.2157 24.9349C30.048 24.8635 29.7665 24.8286 29.3712 24.8286H28.6484V28.4217H29.33V26.8997H29.3917L30.1967 28.4217H30.9416L30.0939 26.8235H30.0955ZM29.9927 26.1474C29.9104 26.2046 29.7618 26.2331 29.5451 26.2331H29.3316V25.4952H29.5182C29.7001 25.4952 29.8235 25.5079 29.8915 25.5333C29.9595 25.5587 30.0132 25.5999 30.0544 25.6586C30.0955 25.7174 30.1145 25.7856 30.1145 25.8634C30.1145 25.9951 30.0733 26.0903 29.9911 26.1474H29.9927Z" fill="#686563"></path>
  <path d="M21.7637 38.7213C21.5565 38.3515 21.2908 38.0833 20.9698 37.9198C20.6488 37.7548 20.1569 37.6738 19.4974 37.6738H18.4727V42.2366H19.5133C20.1016 42.2366 20.5159 42.1985 20.7547 42.1255C20.9935 42.0509 21.2149 41.916 21.4205 41.7224C21.6261 41.5272 21.7858 41.2828 21.9029 40.9892C22.0183 40.694 22.0768 40.3718 22.0768 40.0195C22.0768 39.5259 21.9724 39.0926 21.7653 38.7229L21.7637 38.7213ZM21.0315 40.7924C20.9176 41.0066 20.7721 41.1606 20.595 41.251C20.4163 41.3415 20.13 41.3875 19.7347 41.3875H19.333V38.5086H19.6271C20.1648 38.5086 20.5554 38.6292 20.799 38.8689C21.0694 39.1355 21.2038 39.5116 21.2038 39.9957C21.2038 40.3099 21.1469 40.5749 21.0331 40.7908L21.0315 40.7924Z" fill="#686563"></path>
  <path d="M23.6034 25.2889C23.5038 25.127 23.3678 25.0095 23.1938 24.9365C23.0214 24.8635 22.7399 24.8286 22.3477 24.8286H21.625V28.4217H22.3066V26.8997C22.6545 26.8997 22.8933 26.8807 23.0246 26.8442C23.2492 26.7791 23.4263 26.6632 23.556 26.4982C23.6872 26.3315 23.7521 26.1236 23.7521 25.8729C23.7521 25.6459 23.7015 25.4523 23.6018 25.2904L23.6034 25.2889ZM23.0357 26.076C22.9977 26.1316 22.9455 26.1728 22.8791 26.1966C22.8127 26.222 22.6941 26.2331 22.5233 26.2331H22.3066V25.4952H22.4996C22.7099 25.4952 22.8554 25.519 22.9329 25.5666C23.0404 25.6301 23.0942 25.7316 23.0942 25.8697C23.0942 25.9491 23.0752 26.0173 23.0373 26.0744L23.0357 26.076Z" fill="#686563"></path>
  <path d="M27.4162 25.2901C27.0509 24.9219 26.616 24.7378 26.1099 24.7378C25.7746 24.7378 25.4631 24.8219 25.1737 24.9901C24.8843 25.1584 24.6565 25.3869 24.4905 25.6757C24.3244 25.9646 24.2422 26.2804 24.2422 26.6232C24.2422 27.1358 24.4209 27.5786 24.7751 27.9516C25.131 28.3245 25.5769 28.5102 26.1146 28.5102C26.6523 28.5102 27.0635 28.3293 27.4241 27.9658C27.7831 27.6024 27.9634 27.1596 27.9634 26.6343C27.9634 26.109 27.7815 25.6567 27.4162 25.2885V25.2901ZM26.9402 27.4977C26.7124 27.7325 26.4373 27.85 26.1146 27.85C25.8284 27.85 25.5754 27.7595 25.354 27.5786C25.0693 27.3469 24.927 27.0327 24.927 26.6359C24.927 26.2788 25.0392 25.9852 25.2654 25.7535C25.4915 25.5218 25.7699 25.4075 26.1004 25.4075C26.4309 25.4075 26.7077 25.5266 26.937 25.763C27.1663 25.9995 27.2802 26.2899 27.2802 26.6311C27.2802 26.9723 27.1663 27.2628 26.9386 27.4977H26.9402Z" fill="#686563"></path>
  <path d="M30.4871 41.0601C30.8002 41.3664 31.1877 41.5188 31.6479 41.5188C31.9468 41.5188 32.1982 41.4553 32.4038 41.3299C32.6094 41.2029 32.7739 41.0061 32.9004 40.7379H31.5846V39.9222H33.8714L33.8778 40.1142C33.8778 40.5126 33.775 40.8919 33.5678 41.249C33.3622 41.606 33.0949 41.8806 32.7676 42.0679C32.4402 42.2551 32.0559 42.3504 31.6147 42.3504C31.1434 42.3504 30.7227 42.2472 30.3527 42.0425C29.9826 41.8362 29.69 41.5442 29.475 41.1633C29.2599 40.7824 29.1523 40.3729 29.1523 39.9317C29.1523 39.327 29.3516 38.8017 29.7486 38.3558C30.2198 37.8241 30.8334 37.5591 31.591 37.5591C31.9863 37.5591 32.3564 37.6321 32.7012 37.7797C32.9906 37.9035 33.2768 38.1161 33.5536 38.4193L32.9447 39.0239C32.5588 38.6145 32.1097 38.4097 31.5957 38.4097C31.1482 38.4097 30.7733 38.5589 30.4713 38.8557C30.1692 39.1541 30.019 39.5159 30.019 39.9412C30.019 40.3666 30.1756 40.7554 30.4887 41.0601" fill="#686563"></path>
  <path d="M31.5 24.8286H33.4547V25.4983H32.1769V26.1474H33.4547V26.8045H32.1769V27.7504H33.4547V28.4217H31.5V24.8286Z" fill="#686563"></path>
  <path d="M28.0234 29.8481H29.1763L31.8775 34.0189V29.8481H33.0794V36.1852H31.9233L29.2254 32.0287V36.1852H28.0234V29.8481Z" fill="#686563"></path>
  <path d="M23.4531 36.1852V29.8481H26.9007V31.0289H24.6471V32.1747H26.9007V33.3333H24.6471V34.9997H26.9007V36.1852H23.4531Z" fill="#686563"></path>
  <path d="M23.6986 37.6738H22.8398V42.2366H23.6986V37.6738Z" fill="#686563"></path>
  <path d="M24.6758 37.6738H25.5061L27.4513 40.6749V37.6738H28.3163V42.235H27.4845L25.5408 39.2418V42.235H24.6758V37.6738Z" fill="#686563"></path>
  <path d="M22.3265 32.1747V33.3333H20.0729V34.9997H22.3265V36.1852H18.8789V29.8481H22.3265V31.0289H20.0729V32.1747H22.3265Z" fill="#686563"></path>
  <path d="M17.8107 41.4081V42.235H15.6836V37.6738H16.5487V41.4081H17.8107Z" fill="#686563"></path>
  <path d="M14.7103 37.6738H13.8516V42.2366H14.7103V37.6738Z" fill="#686563"></path>
  <path d="M14.0634 25.3663C14.4351 24.9473 14.919 24.7378 15.5137 24.7378C15.8252 24.7378 16.1162 24.7949 16.3882 24.9108C16.6175 25.0092 16.8405 25.1758 17.0603 25.4139L16.5811 25.89C16.2775 25.5678 15.9233 25.4059 15.5184 25.4059C15.1657 25.4059 14.8716 25.5234 14.6328 25.7583C14.394 25.9931 14.2754 26.2772 14.2754 26.6137C14.2754 26.9501 14.3987 27.2548 14.6454 27.4961C14.8921 27.7373 15.1974 27.8579 15.5595 27.8579C15.7952 27.8579 15.9944 27.8087 16.1557 27.7087C16.317 27.6088 16.4467 27.4532 16.5463 27.2421H15.5089V26.5994H17.3102L17.3149 26.7502C17.3149 27.0644 17.2343 27.3628 17.0714 27.6437C16.9101 27.9262 16.6998 28.1404 16.442 28.288C16.1842 28.4356 15.8821 28.5102 15.5342 28.5102C15.1626 28.5102 14.8305 28.4293 14.5395 28.2674C14.2485 28.1055 14.0176 27.8738 13.8484 27.5754C13.6791 27.2755 13.5938 26.9533 13.5938 26.6057C13.5938 26.1312 13.7503 25.717 14.0634 25.3647" fill="#686563"></path>
  <path d="M10.0664 24.8286H10.7211L12.252 27.1933V24.8286H12.9336V28.4217H12.2789L10.748 26.0649V28.4217H10.0664V24.8286Z" fill="#686563"></path>
  <path d="M10.7667 41.1623C10.811 41.267 10.8837 41.3511 10.9865 41.4146C11.0877 41.4781 11.2111 41.5098 11.355 41.5098C11.5068 41.5098 11.6381 41.4749 11.7488 41.4051C11.8595 41.3353 11.9354 41.2464 11.9781 41.1369C12.0208 41.029 12.0413 40.8211 12.0413 40.5148V37.6724H12.9096V40.3926C12.9096 40.8512 12.8843 41.1702 12.8321 41.348C12.7799 41.5257 12.6818 41.6971 12.5363 41.8637C12.3908 42.0288 12.2232 42.151 12.035 42.2319C11.8452 42.3113 11.6254 42.351 11.374 42.351C11.0434 42.351 10.7572 42.2748 10.5121 42.1224C10.2685 41.9701 10.093 41.7812 9.9886 41.5511C9.88422 41.3226 9.83203 40.9369 9.83203 40.3926V37.6724H10.7003V40.6227C10.7003 40.8766 10.7224 41.0559 10.7667 41.1623Z" fill="#686563"></path>
  <path d="M11.0372 29.9956C11.4405 30.167 11.8359 30.4638 12.2217 30.8828L11.3757 31.7223C10.8395 31.1542 10.2164 30.8701 9.5032 30.8701C8.88169 30.8701 8.36138 31.0764 7.94071 31.4906C7.52163 31.9048 7.31129 32.4063 7.31129 32.9983C7.31129 33.5903 7.52953 34.1283 7.96444 34.5536C8.39934 34.9789 8.93704 35.1916 9.57595 35.1916C9.99188 35.1916 10.3414 35.1043 10.626 34.9282C10.9107 34.7536 11.1416 34.479 11.3156 34.1061H9.48739V32.9729H12.6646L12.6725 33.2395C12.6725 33.7934 12.5301 34.3187 12.2439 34.8171C11.9576 35.3138 11.5876 35.6931 11.1321 35.955C10.6767 36.2168 10.1437 36.347 9.53167 36.347C8.87694 36.347 8.2918 36.2041 7.77782 35.9185C7.26385 35.6328 6.85741 35.2249 6.55851 34.6965C6.25961 34.168 6.10938 33.5982 6.10938 32.9872C6.10938 32.1492 6.38613 31.4192 6.93806 30.7987C7.59279 30.0607 8.44678 29.6909 9.49688 29.6909C10.0472 29.6909 10.5596 29.7925 11.0388 29.9972" fill="#686563"></path>
  <path d="M9.29796 24.8286H8.62109V28.4217H9.29796V24.8286Z" fill="#686563"></path>
  <path d="M7.26318 27.2789C7.20308 27.198 7.07024 27.0726 6.86623 26.9059C6.47561 26.5869 6.22416 26.341 6.11029 26.168C5.99642 25.995 5.93949 25.822 5.93949 25.649C5.93949 25.3998 6.03438 25.1856 6.22257 25.0078C6.41235 24.8301 6.64483 24.7412 6.92316 24.7412C7.10187 24.7412 7.27267 24.7825 7.43398 24.8666C7.59529 24.9491 7.77083 25.1015 7.95902 25.3205L7.45454 25.768C7.27741 25.5204 7.09712 25.3967 6.91367 25.3967C6.82511 25.3967 6.75078 25.4205 6.69385 25.4681C6.63692 25.5157 6.60845 25.5712 6.60845 25.63C6.60845 25.6887 6.62901 25.7474 6.67013 25.8014C6.72548 25.8728 6.89153 26.0267 7.16987 26.2632C7.42923 26.4806 7.58738 26.6187 7.64273 26.6758C7.78032 26.8155 7.87837 26.9504 7.93688 27.0773C7.99382 27.2059 8.02386 27.344 8.02386 27.4963C8.02386 27.7915 7.92265 28.0343 7.71864 28.2264C7.51463 28.4184 7.25053 28.5152 6.92475 28.5152C6.67013 28.5152 6.44714 28.4533 6.25895 28.3279C6.07075 28.2026 5.90786 28.0058 5.77344 27.7376L6.34593 27.3916C6.51831 27.709 6.71599 27.8677 6.94056 27.8677C7.05759 27.8677 7.15564 27.8344 7.23471 27.7645C7.31379 27.6963 7.3549 27.6169 7.3549 27.5281C7.3549 27.4471 7.32486 27.3646 7.26476 27.2837" fill="#686563"></path>
  <path d="M33.7112 49.8955H5.87109V50.2018H33.7112V49.8955Z" fill="#686563"></path>
  <path d="M10.1318 58.8508C9.70481 59.2539 9.15129 59.4555 8.46494 59.4555C7.9304 59.4555 7.46387 59.3238 7.06692 59.0619C6.66997 58.7984 6.33154 58.3858 6.04688 57.8224L7.24879 57.0955C7.60936 57.7605 8.02529 58.0938 8.49657 58.0938C8.74169 58.0938 8.94887 58.0224 9.11492 57.8795C9.28098 57.7367 9.36479 57.5701 9.36479 57.3812C9.36479 57.2114 9.30153 57.04 9.1766 56.8702C9.05008 56.6988 8.77174 56.4369 8.34317 56.0862C7.52555 55.4165 6.99734 54.9007 6.75854 54.5356C6.51973 54.1706 6.40112 53.8088 6.40112 53.4469C6.40112 52.9248 6.59881 52.4757 6.99576 52.1027C7.3927 51.7282 7.88296 51.5425 8.46494 51.5425C8.83975 51.5425 9.19716 51.6298 9.53559 51.8028C9.87403 51.9773 10.2409 52.2947 10.6363 52.7566L9.57829 53.6929C9.20665 53.174 8.82868 52.9137 8.44438 52.9137C8.25618 52.9137 8.10278 52.9645 7.98417 53.066C7.86556 53.1676 7.80547 53.2803 7.80547 53.4057C7.80547 53.531 7.84817 53.6517 7.93357 53.7643C8.04901 53.9151 8.39852 54.2373 8.98208 54.7324C9.52768 55.1895 9.85821 55.4783 9.97366 55.5974C10.2631 55.891 10.4687 56.1719 10.5888 56.4401C10.7106 56.7083 10.7707 57.0003 10.7707 57.3177C10.7707 57.9351 10.5572 58.4461 10.1318 58.8492" fill="#686563"></path>
  <path d="M18.8718 57.6373C18.5318 58.2277 18.0906 58.6784 17.5497 58.9895C17.0089 59.299 16.3747 59.4545 15.6457 59.4545C14.866 59.4545 14.1717 59.2847 13.5613 58.9451C12.9508 58.6054 12.4669 58.1214 12.1111 57.4929C11.7552 56.8644 11.5781 56.1868 11.5781 55.4599C11.5781 54.4633 11.9071 53.5951 12.5634 52.8588C13.343 51.9811 14.3568 51.5415 15.6045 51.5415C16.2577 51.5415 16.8697 51.6621 17.4375 51.9049C17.9166 52.1097 18.3863 52.4604 18.845 52.9603L17.8392 53.9586C17.2034 53.2825 16.4601 52.9445 15.6124 52.9445C14.8739 52.9445 14.254 53.1904 13.7542 53.6824C13.2545 54.1744 13.0062 54.7711 13.0062 55.4758C13.0062 56.1804 13.2655 56.82 13.7827 57.3247C14.2998 57.8294 14.9387 58.0833 15.6978 58.0833C16.1913 58.0833 16.6088 57.9786 16.9472 57.7707C17.2856 57.5627 17.5592 57.2358 17.768 56.793H15.5935V55.4456H19.37L19.3811 55.763C19.3811 56.4217 19.2103 57.047 18.8703 57.6373" fill="#686563"></path>
  <path d="M27.932 56.8261C28.1486 57.2165 28.457 57.5228 28.8555 57.7434C29.2541 57.9656 29.6953 58.0767 30.1824 58.0767C30.5967 58.0767 30.9763 57.9989 31.3195 57.8434C31.6626 57.6879 32.0406 57.4054 32.4518 56.9943L33.4212 58.0085C32.8661 58.5512 32.3427 58.9289 31.8492 59.1384C31.3558 59.3479 30.7928 59.4527 30.1602 59.4527C28.9931 59.4527 28.0379 59.0813 27.2946 58.3386C26.5513 57.5958 26.1797 56.6436 26.1797 55.4819C26.1797 54.7312 26.3489 54.0631 26.6873 53.479C27.0258 52.895 27.5113 52.4252 28.1423 52.0713C28.7733 51.7158 29.4517 51.5381 30.1808 51.5381C30.8007 51.5381 31.3969 51.6698 31.9694 51.9317C32.5435 52.1935 33.0369 52.5681 33.4513 53.0521L32.4518 54.0091C31.7718 53.287 31.0063 52.9267 30.1571 52.9267C29.4391 52.9267 28.835 53.1727 28.3447 53.6647C27.8529 54.1567 27.6078 54.7645 27.6078 55.4851C27.6078 55.9882 27.7169 56.4341 27.9351 56.8229" fill="#686563"></path>
  <path d="M25.0479 55.9249C24.836 55.6027 24.5023 55.3329 24.0468 55.1171C24.3188 54.9124 24.5149 54.6934 24.6367 54.4585C24.7569 54.2252 24.8186 53.9649 24.8186 53.6777C24.8186 53.2365 24.6857 52.854 24.42 52.5302C24.1544 52.2049 23.7954 51.9827 23.3462 51.8652C23.0299 51.7764 22.5286 51.7319 21.8438 51.7319H20.6641V59.2672H22.769C23.3763 59.2672 23.8507 59.1815 24.1955 59.0085C24.5387 58.8371 24.8202 58.5753 25.0384 58.2277C25.2566 57.8801 25.3658 57.4945 25.3658 57.0707C25.3658 56.647 25.2598 56.2487 25.0495 55.9265L25.0479 55.9249ZM22.0921 53.0984H22.4606C22.788 53.0984 23.0331 53.1682 23.1928 53.3063C23.3526 53.4444 23.4332 53.6316 23.4332 53.8665C23.4332 54.1188 23.3478 54.3188 23.1786 54.4664C23.0094 54.6124 22.75 54.687 22.4021 54.687H22.089V53.0984H22.0921ZM23.6499 57.6722C23.4427 57.823 23.0426 57.8976 22.4495 57.8976H22.0921V55.9662H22.3894C22.9524 55.9662 23.3541 56.0598 23.5977 56.2487C23.8396 56.4359 23.9614 56.693 23.9614 57.0168C23.9614 57.304 23.857 57.5231 23.6515 57.6722H23.6499Z" fill="#686563"></path>
  <path d="M6.18359 43.7969H7.0961C7.58952 43.7969 7.94535 43.8429 8.16359 43.9334C8.38183 44.0254 8.55421 44.173 8.67915 44.3777C8.80567 44.5825 8.86734 44.8269 8.86734 45.1125C8.86734 45.4284 8.78511 45.6918 8.62063 45.9013C8.45616 46.1108 8.23159 46.2568 7.95009 46.3393C7.78404 46.3869 7.48198 46.4107 7.04391 46.4107V48.3311H6.18359V43.7969ZM7.04391 45.568H7.31751C7.53258 45.568 7.68124 45.5521 7.76506 45.522C7.84888 45.4903 7.9153 45.4395 7.96274 45.368C8.01019 45.2966 8.03549 45.2109 8.03549 45.1094C8.03549 44.9348 7.96749 44.8062 7.83306 44.7253C7.73501 44.665 7.55314 44.6364 7.28588 44.6364H7.04391V45.5664V45.568Z" fill="#686563"></path>
  <path d="M9.76721 43.7965H10.6781C11.1763 43.7965 11.5321 43.8409 11.744 43.9298C11.956 44.0187 12.1268 44.1679 12.2549 44.3758C12.3845 44.5837 12.4478 44.8281 12.4478 45.1122C12.4478 45.4105 12.3766 45.6597 12.2343 45.8597C12.092 46.0596 11.8769 46.212 11.5906 46.3136L12.6613 48.3291H11.7203L10.705 46.4088H10.6259V48.3291H9.76562V43.7949L9.76721 43.7965ZM10.6259 45.5677H10.8948C11.1684 45.5677 11.3566 45.5312 11.4594 45.4597C11.5622 45.3883 11.6144 45.2677 11.6144 45.1011C11.6144 45.0027 11.5891 44.9154 11.5384 44.8424C11.4878 44.7694 11.4183 44.717 11.3329 44.6837C11.2475 44.6519 11.0893 44.6361 10.8616 44.6361H10.6259V45.5661V45.5677Z" fill="#686563"></path>
  <path d="M15.4908 43.6823C16.1297 43.6823 16.68 43.914 17.1403 44.379C17.6005 44.8424 17.8298 45.409 17.8298 46.0771C17.8298 46.7452 17.602 47.2991 17.1497 47.7562C16.6959 48.2148 16.1455 48.4434 15.4971 48.4434C14.8487 48.4434 14.2557 48.2085 13.8065 47.7371C13.3574 47.2658 13.1328 46.7087 13.1328 46.0612C13.1328 45.628 13.2372 45.2296 13.4459 44.8646C13.6547 44.5012 13.9425 44.2123 14.3078 43.9997C14.6732 43.787 15.0669 43.6807 15.4892 43.6807M15.4813 44.5266C15.0638 44.5266 14.7111 44.6726 14.4265 44.9646C14.1418 45.2566 13.9995 45.6264 13.9995 46.0771C13.9995 46.5786 14.1782 46.9754 14.5372 47.2674C14.8155 47.4959 15.1349 47.6086 15.4955 47.6086C15.9035 47.6086 16.2515 47.461 16.5377 47.1642C16.8255 46.869 16.9679 46.504 16.9679 46.0708C16.9679 45.6375 16.824 45.2741 16.5345 44.9757C16.2451 44.6773 15.8941 44.5281 15.4797 44.5281" fill="#686563"></path>
  <path d="M18.6461 43.7965H19.6646C20.3209 43.7965 20.8096 43.8775 21.1274 44.0409C21.4469 44.2044 21.7094 44.4694 21.9166 44.8376C22.1238 45.2058 22.2266 45.6343 22.2266 46.1263C22.2266 46.4754 22.168 46.796 22.0526 47.0896C21.9371 47.3816 21.7774 47.626 21.5734 47.8181C21.3694 48.0117 21.1496 48.145 20.9124 48.218C20.6751 48.2926 20.264 48.3291 19.6788 48.3291H18.6445V43.7949L18.6461 43.7965ZM19.5001 44.6281V47.488H19.8986C20.2924 47.488 20.5771 47.442 20.7542 47.3531C20.9313 47.2626 21.0752 47.1103 21.1891 46.896C21.3014 46.6818 21.3583 46.4183 21.3583 46.1057C21.3583 45.6248 21.2239 45.2518 20.9566 44.9852C20.7147 44.7471 20.3272 44.6265 19.7927 44.6265H19.5017L19.5001 44.6281Z" fill="#686563"></path>
  <path d="M23.0117 43.7969H23.8752V46.7281C23.8752 46.9805 23.8973 47.1598 23.9416 47.2646C23.9859 47.3693 24.0586 47.4534 24.1599 47.5153C24.2611 47.5772 24.3828 47.609 24.5268 47.609C24.6786 47.609 24.8083 47.574 24.919 47.5042C25.0281 47.4344 25.104 47.3455 25.1467 47.2376C25.1894 47.1297 25.21 46.9234 25.21 46.6202V43.7969H26.0734V46.4996C26.0734 46.9551 26.0481 47.2725 25.9959 47.4487C25.9453 47.6248 25.8473 47.7962 25.7034 47.9597C25.5595 48.1247 25.3918 48.2469 25.2052 48.3247C25.017 48.4041 24.7972 48.4437 24.5489 48.4437C24.2215 48.4437 23.9369 48.3676 23.6933 48.2168C23.4498 48.066 23.2774 47.8772 23.173 47.6502C23.0686 47.4233 23.0165 47.0392 23.0165 46.4996V43.7969H23.0117Z" fill="#686563"></path>
  <path d="M31.222 44.5931L30.621 45.1692C30.2114 44.7359 29.7512 44.5185 29.2404 44.5185C28.8087 44.5185 28.4449 44.6661 28.1492 44.9629C27.8535 45.2597 27.7064 45.6247 27.7064 46.0579C27.7064 46.3611 27.7712 46.6293 27.9025 46.8626C28.0338 47.0974 28.2188 47.2815 28.4576 47.4149C28.6964 47.5482 28.9621 47.6148 29.2546 47.6148C29.5045 47.6148 29.7322 47.5672 29.9394 47.4752C30.1466 47.3815 30.3727 47.2117 30.621 46.9641L31.2046 47.5751C30.8709 47.9021 30.5546 48.129 30.2589 48.2544C29.9616 48.3814 29.6231 48.4433 29.242 48.4433C28.5398 48.4433 27.9642 48.2195 27.5182 47.7735C27.0706 47.326 26.8477 46.7546 26.8477 46.0548C26.8477 45.6025 26.9505 45.2009 27.1529 44.8502C27.3569 44.4995 27.6479 44.217 28.0274 44.0027C28.407 43.79 28.8166 43.6821 29.2546 43.6821C29.6263 43.6821 29.9869 43.7615 30.33 43.9186C30.6748 44.0757 30.9721 44.3011 31.222 44.5931Z" fill="#686563"></path>
  <path d="M31.5273 43.7969H34.0245V44.6475H33.2021V48.3295H32.3291V44.6475H31.5273V43.7969Z" fill="#686563"></path>
  <path d="M8.84511 40.2116C8.71701 40.0164 8.51458 39.853 8.23941 39.7228C8.40388 39.599 8.52407 39.4657 8.59682 39.3245C8.66956 39.1832 8.70594 39.0245 8.70594 38.8515C8.70594 38.5849 8.62528 38.3532 8.46556 38.1564C8.30425 37.9596 8.08758 37.8263 7.81557 37.7533C7.62422 37.6993 7.32057 37.6724 6.90623 37.6724H6.19141V42.2351H7.46607C7.83297 42.2351 8.1208 42.1827 8.32955 42.078C8.5383 41.9732 8.70752 41.8161 8.84036 41.6051C8.97162 41.394 9.03805 41.1607 9.03805 40.9036C9.03805 40.6465 8.97479 40.4053 8.84669 40.21L8.84511 40.2116ZM7.05647 38.5008H7.27946C7.47872 38.5008 7.6258 38.5421 7.72385 38.6262C7.8219 38.7103 7.86934 38.823 7.86934 38.9658C7.86934 39.1182 7.81874 39.2404 7.71594 39.3292C7.61314 39.4181 7.45658 39.4625 7.24624 39.4625H7.05647V38.5008ZM8.0006 41.2718C7.87567 41.3622 7.6337 41.4083 7.27313 41.4083H7.05647V40.2386H7.23676C7.57835 40.2386 7.8219 40.2957 7.96898 40.41C8.11605 40.5243 8.1888 40.6782 8.1888 40.875C8.1888 41.048 8.12712 41.1813 8.00219 41.2718H8.0006Z" fill="#686563"></path>
  <path d="M11.9141 68.1274H12.5451V70.8492H13.4639V71.4523H11.9141V68.1274Z" fill="#686563"></path>
  <path d="M13.9492 68.1274H15.7568V68.7464H14.5755V69.3479H15.7568V69.9557H14.5755V70.8302H15.7568V71.4523H13.9492V68.1274Z" fill="#686563"></path>
  <path d="M17.356 68.1274H17.9949L19.2695 71.4523H18.6148L18.3554 70.7667H17.0033L16.7329 71.4523H16.0781L17.356 68.1274ZM17.6802 69.0082L17.2358 70.1493H18.123L17.6817 69.0082H17.6802Z" fill="#686563"></path>
  <path d="M19.7578 68.1276H20.5043C20.9866 68.1276 21.344 68.1879 21.5781 68.3069C21.8121 68.4259 22.0051 68.6211 22.1569 68.8909C22.3087 69.1607 22.3846 69.475 22.3846 69.8352C22.3846 70.0907 22.3419 70.3272 22.2581 70.5415C22.1743 70.7557 22.0557 70.935 21.907 71.0763C21.7584 71.2175 21.5955 71.3159 21.4215 71.3699C21.2476 71.4239 20.9455 71.4508 20.5169 71.4508H19.7578V68.126V68.1276ZM20.3841 68.737V70.8351H20.6766C20.9645 70.8351 21.1732 70.8017 21.3045 70.7351C21.4342 70.6684 21.5401 70.5573 21.6224 70.4002C21.7046 70.2431 21.7457 70.0495 21.7457 69.8209C21.7457 69.467 21.6477 69.1941 21.45 68.9989C21.2729 68.8243 20.9882 68.737 20.596 68.737H20.3825H20.3841Z" fill="#686563"></path>
  <path d="M22.9883 68.1274H24.7975V68.7464H23.6145V69.3479H24.7975V69.9557H23.6145V70.8302H24.7975V71.4523H22.9883V68.1274Z" fill="#686563"></path>
  <path d="M25.4297 68.1276H26.0986C26.4655 68.1276 26.7249 68.1609 26.8815 68.226C27.0365 68.291 27.1614 68.4005 27.2563 68.5529C27.3512 68.7052 27.3986 68.8846 27.3986 69.0925C27.3986 69.3115 27.3464 69.494 27.242 69.64C27.1377 69.7876 26.9811 69.8987 26.7708 69.9733L27.5552 71.4508H26.8657L26.1208 70.0431H26.0639V71.4508H25.4328V68.126L25.4297 68.1276ZM26.0607 69.4274H26.2584C26.4592 69.4274 26.5968 69.4004 26.6727 69.348C26.7486 69.2956 26.7866 69.2068 26.7866 69.0846C26.7866 69.0115 26.7676 68.9497 26.7312 68.8957C26.6933 68.8417 26.6443 68.8036 26.581 68.7798C26.5177 68.756 26.4023 68.7449 26.2347 68.7449H26.0623V69.4274H26.0607Z" fill="#686563"></path>
  <path d="M18.0679 21.465C17.6361 19.8812 16.2476 17.6482 14.7294 15.9865C12.3177 13.3489 9.46154 11.346 9.46154 11.346C13.1653 13.014 14.712 14.3868 15.4806 15.2565C16.1227 15.985 16.1448 16.7483 16.1448 16.7483C16.1448 16.7483 16.0642 17.3562 16.6841 17.5815C17.2091 17.7736 18.3731 16.9213 18.3699 15.8167C18.3699 15.5327 17.9398 12.3046 11.6187 9.46063C4.73295 6.36272 2.29908 7.84978 2.29908 7.84978C2.29908 7.84978 1.23001 7.30225 1.06395 8.04657C0.907386 8.7528 0.662259 8.7528 5.41931 13.6139C8.06036 16.3119 11.1142 18.2592 13.0641 19.1051C14.6171 19.778 15.8254 19.778 15.8254 19.778C15.8254 19.778 16.9419 21.2841 16.8913 22.4458C16.8407 23.6059 17.856 23.3044 17.856 23.3044C17.856 23.3044 17.8212 23.6075 18.1754 23.6091C18.6499 23.6107 18.8254 22.0983 18.9345 21.4523C19.0816 20.5906 19.4169 19.2051 20.4037 18.7147L20.4353 18.9099C20.4353 18.9099 23.2108 19.3051 26.8814 16.2468C29.951 13.6901 31.4455 11.7634 34.6844 7.48317C34.6844 7.48317 37.3902 3.33622 37.8346 2.3221C38.279 1.30798 37.8346 1.04294 36.2816 0.998507C34.7286 0.95407 31.6685 1.6603 27.9868 5.05499C24.3052 8.45126 20.7674 13.5441 20.1902 17.1594C20.1902 17.1594 19.1607 18.3036 18.7479 19.1083C18.0869 20.3985 18.0679 21.4603 18.0679 21.4603" fill="#686563"></path>
  <path d="M29.4443 62.027C29.3795 62.0873 29.3162 62.1508 29.2529 62.2191C29.0758 62.4095 28.9398 62.6174 28.6694 63.0332C28.3104 63.5855 28.0763 64.0204 27.8945 64.3616C27.4153 65.2598 27.2919 65.6423 27.2603 65.7439C27.2382 65.8185 27.1923 65.9994 27.1021 66.3581C27.0879 66.4152 27.0658 66.5041 27.0515 66.6263C27.0421 66.7152 27.0389 66.7897 27.0389 66.8389C26.6704 66.8389 26.3019 66.8421 25.9334 66.8421C25.9034 66.7548 25.8496 66.6199 25.7532 66.4739C25.6915 66.3803 25.6614 66.3565 25.4938 66.1486C25.3214 65.9359 25.3372 65.9423 25.2202 65.8026C25.1206 65.6836 25.0842 65.6487 24.8881 65.4328C24.8153 65.3535 24.7078 65.2344 24.5781 65.0853C24.9624 64.8234 25.3467 64.5599 25.731 64.2965C25.7674 64.3965 25.8243 64.5171 25.9176 64.6361C25.9983 64.7377 26.0742 64.7996 26.1264 64.8409C26.2608 64.9488 26.3304 65.0043 26.4158 64.99C26.4363 64.9869 26.5233 64.9694 26.5961 64.8345C26.7115 64.5774 26.8823 64.2394 27.1211 63.8616C27.2223 63.7029 27.3694 63.4728 27.5971 63.1967C27.9451 62.7729 28.2772 62.4889 28.448 62.3508C28.7073 62.1397 28.9477 61.954 29.215 61.8048C29.4996 61.6461 29.8286 61.5446 30.1575 61.4604L29.4443 62.0286V62.027Z" fill="#686563"></path>
  <path d="M24.8466 62.027C24.7818 62.0873 24.7185 62.1508 24.6553 62.2191C24.4782 62.4095 24.3422 62.6174 24.0717 63.0332C23.7127 63.5855 23.4787 64.0204 23.2968 64.3616C22.8176 65.2598 22.6943 65.6423 22.6626 65.7439C22.6405 65.8185 22.5946 65.9994 22.5045 66.3581C22.4903 66.4152 22.4681 66.5041 22.4539 66.6263C22.4444 66.7152 22.4412 66.7897 22.4412 66.8389C22.0727 66.8389 21.7043 66.8421 21.3358 66.8421C21.3057 66.7548 21.252 66.6199 21.1555 66.4739C21.0938 66.3803 21.0638 66.3565 20.8961 66.1486C20.7238 65.9359 20.7396 65.9423 20.6225 65.8026C20.5229 65.6836 20.4865 65.6487 20.2904 65.4328C20.2177 65.3535 20.1101 65.2344 19.9805 65.0853C20.3648 64.8234 20.7491 64.5599 21.1334 64.2965C21.1697 64.3965 21.2267 64.5171 21.32 64.6361C21.4006 64.7377 21.4765 64.7996 21.5287 64.8409C21.6631 64.9488 21.7327 65.0043 21.8181 64.99C21.8387 64.9869 21.9257 64.9694 21.9984 64.8345C22.1139 64.5774 22.2847 64.2394 22.5235 63.8616C22.6247 63.7029 22.7718 63.4728 22.9995 63.1967C23.3474 62.7729 23.6795 62.4889 23.8503 62.3508C24.1097 62.1397 24.3501 61.954 24.6173 61.8048C24.902 61.6461 25.2309 61.5446 25.5599 61.4604L24.8466 62.0286V62.027Z" fill="#686563"></path>
  <path d="M19.9521 62.027C19.8873 62.0873 19.824 62.1508 19.7608 62.2191C19.5836 62.4095 19.4476 62.6174 19.1772 63.0332C18.8182 63.5855 18.5841 64.0204 18.4023 64.3616C17.9231 65.2598 17.7997 65.6423 17.7681 65.7439C17.746 65.8185 17.7001 65.9994 17.61 66.3581C17.5957 66.4152 17.5736 66.5041 17.5594 66.6263C17.5499 66.7152 17.5467 66.7897 17.5467 66.8389C17.1782 66.8389 16.8097 66.8421 16.4413 66.8421C16.4112 66.7548 16.3574 66.6199 16.261 66.4739C16.1993 66.3803 16.1692 66.3565 16.0016 66.1486C15.8292 65.9359 15.845 65.9423 15.728 65.8026C15.6284 65.6836 15.592 65.6487 15.3959 65.4328C15.3232 65.3535 15.2156 65.2344 15.0859 65.0853C15.4702 64.8234 15.8545 64.5599 16.2388 64.2965C16.2752 64.3965 16.3321 64.5171 16.4254 64.6361C16.5061 64.7377 16.582 64.7996 16.6342 64.8409C16.7686 64.9488 16.8382 65.0043 16.9236 64.99C16.9442 64.9869 17.0311 64.9694 17.1039 64.8345C17.2193 64.5774 17.3901 64.2394 17.6289 63.8616C17.7302 63.7029 17.8772 63.4728 18.105 63.1967C18.4529 62.7729 18.785 62.4889 18.9558 62.3508C19.2151 62.1397 19.4555 61.954 19.7228 61.8048C20.0075 61.6461 20.3364 61.5446 20.6654 61.4604L19.9521 62.0286V62.027Z" fill="#686563"></path>
  <path d="M15.3623 62.027C15.2974 62.0873 15.2342 62.1508 15.1709 62.2191C14.9938 62.4095 14.8578 62.6174 14.5873 63.0332C14.2284 63.5855 13.9943 64.0204 13.8124 64.3616C13.3332 65.2598 13.2099 65.6423 13.1783 65.7439C13.1561 65.8185 13.1103 65.9994 13.0201 66.3581C13.0059 66.4152 12.9837 66.5041 12.9695 66.6263C12.96 66.7152 12.9569 66.7897 12.9569 66.8389C12.5884 66.8389 12.2199 66.8421 11.8514 66.8421C11.8214 66.7548 11.7676 66.6199 11.6711 66.4739C11.6094 66.3803 11.5794 66.3565 11.4118 66.1486C11.2394 65.9359 11.2552 65.9423 11.1382 65.8026C11.0385 65.6836 11.0022 65.6487 10.8061 65.4328C10.7333 65.3535 10.6258 65.2344 10.4961 65.0853C10.8804 64.8234 11.2647 64.5599 11.649 64.2965C11.6854 64.3965 11.7423 64.5171 11.8356 64.6361C11.9163 64.7377 11.9922 64.7996 12.0443 64.8409C12.1788 64.9488 12.2484 65.0043 12.3338 64.99C12.3543 64.9869 12.4413 64.9694 12.514 64.8345C12.6295 64.5774 12.8003 64.2394 13.0391 63.8616C13.1403 63.7029 13.2874 63.4728 13.5151 63.1967C13.863 62.7729 14.1951 62.4889 14.3659 62.3508C14.6253 62.1397 14.8657 61.954 15.133 61.8048C15.4176 61.6461 15.7466 61.5446 16.0755 61.4604L15.3623 62.0286V62.027Z" fill="#686563"></path>
</svg>
